<svg width="55" height="56" viewBox="0 0 55 56" fill="none" xmlns="http://www.w3.org/2000/svg">
<path d="M29.0909 12.2614V23.7014C29.0909 24.9147 29.0309 26.108 28.9109 27.2814C28.7909 28.4414 28.6375 29.6747 28.4509 30.9814H25.0909C24.9042 29.6747 24.7509 28.4414 24.6309 27.2814C24.5109 26.108 24.4509 24.9147 24.4509 23.7014V12.2614H29.0909ZM23.6709 38.4614C23.6709 38.048 23.7442 37.6547 23.8909 37.2814C24.0509 36.908 24.2642 36.588 24.5309 36.3214C24.8109 36.0547 25.1375 35.8414 25.5109 35.6814C25.8842 35.5214 26.2842 35.4414 26.7109 35.4414C27.1242 35.4414 27.5175 35.5214 27.8909 35.6814C28.2642 35.8414 28.5842 36.0547 28.8509 36.3214C29.1309 36.588 29.3509 36.908 29.5109 37.2814C29.6709 37.6547 29.7509 38.048 29.7509 38.4614C29.7509 38.888 29.6709 39.288 29.5109 39.6614C29.3509 40.0214 29.1309 40.3347 28.8509 40.6014C28.5842 40.868 28.2642 41.0747 27.8909 41.2214C27.5175 41.3814 27.1242 41.4614 26.7109 41.4614C26.2842 41.4614 25.8842 41.3814 25.5109 41.2214C25.1375 41.0747 24.8109 40.868 24.5309 40.6014C24.2642 40.3347 24.0509 40.0214 23.8909 39.6614C23.7442 39.288 23.6709 38.888 23.6709 38.4614Z" fill="#F89E51"/>
<path d="M53.1309 27.8043C53.1309 42.5586 41.4672 54.4771 27.1309 54.4771C12.7945 54.4771 1.13086 42.5586 1.13086 27.8043C1.13086 13.05 12.7945 1.13153 27.1309 1.13153C41.4672 1.13153 53.1309 13.05 53.1309 27.8043Z" stroke="#F89E51" stroke-width="2"/>
</svg>
